<svg version="1.1" id="Calque_1" xmlns="http://www.w3.org/2000/svg" x="0" y="0" viewBox="0 0 300 300" xml:space="preserve"><style>.Style_x0020_graphique{fill:#fff}.st4{fill:#e6e7e8}.st6{fill:#ab7b55}.st7{fill:#8c5d40}</style><circle cx="150" cy="150" r="150" fill="#00afea"/><linearGradient id="SVGID_1_" gradientUnits="userSpaceOnUse" x1="74.466" y1="286.25" x2="172.727" y2="229.519"><stop offset="0" stop-color="#0babdd"/><stop offset=".034" stop-color="#0d9bd2"/><stop offset=".086" stop-color="#0f8bc6"/><stop offset=".152" stop-color="#107fbd"/><stop offset=".243" stop-color="#1178b8"/><stop offset=".49" stop-color="#1176b7"/><stop offset=".64" stop-color="#1179b9"/><stop offset=".762" stop-color="#0f83c1"/><stop offset=".874" stop-color="#0e94cd"/><stop offset=".975" stop-color="#0babdd"/></linearGradient><path d="M174.32 285.91l-87.31-.74s-8.11-4.51-9.54-5.54c-2.56-1.84-9.87-5.26-9.87-5.26l1.09-42.08h105.63v53.62z" fill="url(#SVGID_1_)" stroke="#0e5489" stroke-miterlimit="10"/><linearGradient id="SVGID_2_" gradientUnits="userSpaceOnUse" x1="120.213" y1="240.436" x2="124.406" y2="213.964"><stop offset="0" stop-color="#0babdd"/><stop offset=".034" stop-color="#0d9bd2"/><stop offset=".086" stop-color="#0f8bc6"/><stop offset=".152" stop-color="#107fbd"/><stop offset=".243" stop-color="#1178b8"/><stop offset=".49" stop-color="#1176b7"/><stop offset=".64" stop-color="#1179b9"/><stop offset=".762" stop-color="#0f83c1"/><stop offset=".874" stop-color="#0e94cd"/><stop offset=".975" stop-color="#0babdd"/></linearGradient><path fill="url(#SVGID_2_)" stroke="#0e5489" stroke-miterlimit="10" d="M174.32 232.28H68.69l6.24-11.62h91.77z"/><path fill="#020202" stroke="#231f20" stroke-miterlimit="10" d="M150.05 225.55H96.49l-.78 1.84h55.68z"/><g><path class="Style_x0020_graphique" d="M96.1 227.47l1.84-5.81 5.14-16.73 11.74-21.39 12.87-18.82 5.95-6.11 28.96 6.11-12.07 21.56.19 41.19z"/><path class="Style_x0020_graphique" d="M133.64 158.61l1.13 35.71-10.72 3-8.9 7.61-4.03 5.96-7.07 8.36-5.47 6.92-2.48 1.3 6.23-20.11 2.83-6.21 4.81-8.76 4.85-8.85 6.69-9.77 6.18-9.05z"/><path class="Style_x0020_graphique" d="M133.36 158.9v33.7l-10.14 3.65-8.56 7.88-4.07 6.24-6.96 8.26-5.26 6.96-2.27 1.88 6.23-20.11 2.83-6.21 4.81-8.76 4.85-8.85 6.69-9.77 6.18-9.05z"/><g><path class="st4" d="M96.1 227.47l1.84-5.81 5.14-16.73 11.74-21.39 12.87-18.82 5.95-6.11 28.96 6.11-12.07 21.56.19 41.19z"/><path fill="#bcbec0" d="M133.64 158.61l1.13 35.71-10.72 3-8.9 7.61-4.03 5.96-7.07 8.36-5.47 6.92-2.48 1.3 6.23-20.11 2.83-6.21 4.81-8.76 4.85-8.85 6.69-9.77 6.18-9.05z"/><path class="st4" d="M133.36 158.9v33.7l-10.14 3.65-8.56 7.88-4.07 6.24-6.96 8.26-5.26 6.96-2.27 1.88 6.23-20.11 2.83-6.21 4.81-8.76 4.85-8.85 6.69-9.77 6.18-9.05z"/></g></g><g><path class="st6" d="M121.63 109.96l-8.6.49-4.62.55-3.54.44s-1.78.42-2.21 1.26c-.43.84-.44 1.86 0 2.53.44.67 2.2 1.64 2.9 2.01.71.37 4.46.52 4.46.52l8.22-2.11 5.88-1.79-2.49-3.9z"/><path class="st7" d="M102.66 115.23l.92.82 1.5.93.49.26 1.3.27 2.48.24 2.13-.32 4.14-2.56 3.02-2.25 2.38-2.67-.58.09-.27.17-3.03 3.02-3.32 1.51-2.75 1.04-2.02.45-1.63.19-2.49-.2-1.41-.84-.96-.34z"/><path class="st6" d="M118.25 113.82l-7.59 3.01s-2.72.17-3.82.92c-1.09.75-3.68 2.67-3.68 2.67l-4.71 2.17-6.36 2.76s-1.22.52-2.33 2.03c-1.12 1.52-.26 3.39-.26 3.39s.97.99 2 1.5 1.7.6 3.6.6c1.9 0 5.8-1.88 5.8-1.88l7.45-3.35 9.91-4.07 2.73-9.75h-2.74z"/><path class="st7" d="M89.5 130.78s2.51 2.63 6.2 2.1c3.69-.53 7.48-2.91 7.48-2.91l2.68-1.3 5.27-2.33 5.12-2.26 5.38-14.12h-.65l-5.4 6.14-4.57 5.44-3.18 1.81-2.41 3.58-1.13 1.66-3.24 1.81-2.86 1.2-3.24.68-2.63-.38-2.82-1.12z"/><path class="st6" d="M125.56 105.47l-14.76 16.88s-1.81.9-3.08 2.14c-1.27 1.24-1.79 2.32-2.32 3.37s-.65 1.64-1.26 2.53c-.61.89-6.95 10.11-6.95 10.11s-.44.62-1.47 1.68-3.76 3.78-3.76 3.78l-2.56 2.71s-1.5 1.9-.63 2.99 1.88 1.55 3.15 1.85c1.27.3 1.44.29 3.38-.37 1.94-.67 6.32-4.84 6.32-4.84l11.58-13.89 2.74-3.58s5.67-4.56 6.95-5.89c1.28-1.33 5.05-5.26 5.05-5.26l-2.38-14.21z"/><path d="M135.93 122.54h3.49s3.78.51 4.67.51h4.17c1.05 0 4.1-.51 4.1-.51l4.21-1.05 3.37-2.74-.81-5.26-14.98-3.96-5.61 2.7-7.23 8 4.62 2.31z" fill="#774c2e"/><path class="st7" d="M90.78 153.15s2.42 1.22 4.51-.02c2.09-1.25 3.42-2.29 3.42-2.29s3.11-2.81 5.14-5.24 6.77-8.13 6.77-8.13l2-2.4 1.37-1.73 1.93-2.53 3.59-2.94.54-.46 1.89-1.61 4.16-4.25 1.82-1.89-.94-5.65-1.42-8.53-.76.88-2.21 7.12-1.61 7.05-1.1 3.49-.21 1.42-.93 1.5-4.2 4.27-3.21 3.28-1.98 3.21-4.79 5.27-3.13 3.85-2.7 3.18-2.42 1.58-2.49 1.57h-3.04z"/><path class="st6" d="M201.93 70.58l-18.66 11.59-3.57 1.63-5.49 1.45-8.69 1.27-9.78 1.63-9.06 1.27h-6.16l-3.44 1.09-2.13 2.79-3.49 1.01-1.27 1.45-1.99 2.54-3.08 8.33-5.43 22.28-1.21 3.26-.24 2.86 1.14 6.39.23 3.25.37 4.79s-.01 2.7.49 3.68c.63 1.22 1.63 3.63 1.63 3.63l2.7 5.31 1.41 2.84.57 1.11.9-1.32 3.79-3.89 2.16-2.22-.91-2.17-1.45-3.44-1.09-2.59v-4.16l-.36-7.38 1.63-5.43 2.9-5.07 4.16-7.43 4.72-3.44 4.71-2.65 3.08.13 1.44 1.62 1.03 3.03.18 4.9-.44 6.77-1.78 6.1-.65 3.12-1.04 2.78-1.28 1.61-1.45 1.95-1.63 3.38-1.63 2.78-2.17 1.45s-3.6 3.2-4.71 4.35c-1.11 1.14-1.91 2.8-2.35 4.35-.44 1.55-.85 2.47-.72 3.8.13 1.33.27 1.48 1.45 2.17 1.18.7 3.25 0 3.25 0s5.3-4.42 7.02-5.33c1.71-.91 2.83-1.48 4.2-2.22s2.96-2.67 3.92-3.74c.96-1.07 1.69-2.1 2.77-3.15 1.08-1.06 11.86-9.92 13.81-11.57 1.94-1.65 15.93-19.62 15.93-19.62l5.43-10.69 4.17-3.8 5.07-4.89 8.72-3.99 12.32-5.73 18.34-7.74 29.66-13.04-1.85-7.14-14.22-17.16-14.16-7.64-18.88 14.8-18.84 14.1z"/><path class="st7" d="M150.5 114.95l-1.94-.08c-.39-.02-.78.08-1.13.27l-4.08 2.29c-.07.04-.14.09-.21.13l-4.24 3.09c-.25.18-.45.41-.6.68l-1.25 2.24-5.46 9.65c-.08.14-.14.28-.19.43l-1.19 3.95c-.06.18-.09.8-.1.99l-.05 2.41c0 .09-.04.96-.03 1.05 0 0 .14 2.32.06 1.51-.08-.81.18 1.45.12 2.25s.02 4.09.02 4.09c-.02.33.03.66.16.97l.89 2.13 1.05 2.5c.05.12.09.23.11.36l1.19 2.76c.03.11-2.69 3.06-2.69 3.18l-3.26 2.93s-.44.89-.9 1.32l1.28-1.96 2.48-2.27 2.13-2.55c0-.21.28-.45.21-.65l-.43-.48-.98-2.04s-1.14-4.27-1.98-4.56c-.84-.29-1.23-.07-1.23-.07s.31-.25.91-.65c.59-.4-.2-9.68-.2-9.68 0-.09 0-.18.01-.26l.15-1.44c.09-.85-.34-1.67-1.09-2.08l-1.08-.59c1.24.43 2.56-.36 2.78-1.65l.81-1.77c.02-.14.74-1.8.74-1.8l.31-1.95.98-2.64 1.08-1.75 1.11-2.85s.89-1.69 1.1-1.84l6.3-4.43c.07-.05.14-.09.21-.13l3.14-1.69c.47-.25 1.02-.32 1.53-.19l3.45.87z"/><path class="st7" d="M137.89 121.39l15.62-1.77v9.96c1.1-2.27 3.12-3.99 2.9-7.04v-4.78s-1.17 6.5-1.15 2.86-1.35-5.57-1.35-5.57-.47 5.1-1.03 2.72-.4-2.32-2.32-3.04c-1.92-.72-4.15 1-4.15 1l-3.26 1.85-5.26 3.81zM136.11 169.43s-3.02-.49-2.29-3.39c.73-2.9.95-3.59.95-3.59s.71-3 3.87-5.31c0 0 3.2-3.23 5.14-4.14l3.26-6.16c1.01-1.72 2.73-3.55 2.73-3.55l1.04-2.78 1.28-5.25 1.16-3.96s1.05.58 2.11-.41-5.07 8.83-1.83 4.8c0 0-4.15 6.52-3.2 7.61l1.11.44s-.89.01-1.61.52c-1.06.75-5.33 7.45-4.85 8.48l.35 1.3s-1.15-1.05-1.61-.14l-4.66 3.8s-2.87 2.61-3.65 5.22c-.78 2.61-.65 4.44-.65 4.44l1.35 2.07z"/></g><circle cx="151.21" cy="149.67" r="143.33" fill="none" stroke="#58595b" stroke-width="15" stroke-miterlimit="10"/></svg>