<svg id="Calque_1" data-name="Calque 1" xmlns="http://www.w3.org/2000/svg" viewBox="0 0 299.64 299.64"><title>lave</title><path d="M298,151.08c0,81.79-66.26,147.56-148,148.09C70.44,299.68,2.37,233,2,151.08S68.26,3,150,3A148,148,0,0,1,298,151.08Z" transform="translate(-1 -0.36)" style="fill:#00afea"/><path d="M25.83,220.17S90.53,183.82,91.47,180s13.74-56.56,18.85-69.61,29.47-46,29.47-46l33-30.64s4.84,1.61,4.71,14.14S161,72.69,161,72.69s-10.1,28.5-8.25,31.82,10.89,9.06,20,8.25l53-4.71,12.37-2.62c9.11,0,6.29,11.37,2.65,16.38L226,129.06s5.06-2.28,15.17-2.1,8.86,13.49.64,16.64l-13.85,5.3s2,.38,10.13-1.44,11.83,12.29,1.74,15.48a81.85,81.85,0,0,0-17.45,7.9s-2.82-2.34,9-1.94c12.57.42,6.4,13.63,3.36,14.92l-13,5.5S207,197.8,193.78,201.66s-50.45,20.71-50.45,20.71l-70,48.09c-8-4.68-20.23-14.81-29.71-25.5A158.27,158.27,0,0,1,25.83,220.17Z" transform="translate(-1 -0.36)" style="fill:#91623f"/><path d="M113.11,104.48s1.32,14.81,9.52,17.08,12.32.61,20.49-5.92l11.28-9,6.49,26.76s4.63,20.46,3.19,24.25-2.61,11.06-4.1,16.75-6.84,17.3-6.84,17.3l-9.91,30.74L103,250.11l-29.6,20.35C70,269.19,61.3,262,55.44,256.74,51.35,253.07,44,245.48,41.8,242.83L80.27,208.1l14.12-17.63L93.07,174s.24-19.33,5.42-36S113.11,104.48,113.11,104.48Z" transform="translate(-1 -0.36)" style="fill:#774c2f"/><path d="M176.4,38.92s-.38,4.69-3.57,12a24.3,24.3,0,0,1-8.38,10.48l-5.74,8.19-5-1.82,2.73,5.88-1.85,7.44L151,95.53l-.78,2.33-1.5,4.51-6.83,1.82,5.92,2.38-4.56,9,11.28-9-1.75-2.06,0-6.7,2.28-9.11,4.06-11.45L161,72.69l6.22-5.55,6.06-7.39s4.22-5.66,4.22-11.81S176.4,38.92,176.4,38.92Z" transform="translate(-1 -0.36)" style="fill:#774c2f"/><path d="M118.21,289.61c.72-3.22,12.59-53,10.37-56.05s-32.52-48.27-38.71-60.84S75.77,120,75.77,120l-.4-45S79.82,72.46,89,81s7.17,28.87,7.17,28.87,14.24,26.68,18,27.54,14-1.93,19.6-9.24l17.34-22.77c2.14-2.81,10.33-35.42,15.16-35.75,3.14-.22,10.63-5.06,12.76,2.73,1.57,5.76-2.63,40-.31,40.47.57.11,2.61-25,2.61-25-3.52.46,2-12.15,2.25-13.14,1.25-5.65,12.75-2.41,15,3.58l2.73,29.67-.54,12.24s-.62-27.87,1.2-32.95,13.15-.85,13.67,10.15c.5,10.51-.1,33-.1,32.95L219,98.63s-1.69-1.83-.58-12.9,9.17-13,9.52-7.5c.2,3.23,2.66,21.91,2.06,28.69v31l-2.85,17a99.11,99.11,0,0,1-8.08,24c-6.08,12.38-24.22,44.85-24.22,44.85l-9,64.86c-13.26,3.37-32.23,4.51-37.6,4.51C143.75,293.17,125.74,291.34,118.21,289.61Z" transform="translate(-1 -0.36)" style="fill:#91623f"/><polygon points="180.27 87.43 183.67 80.14 181.97 107.02 177.66 112.48 180.27 87.43" style="fill:#774c2f"/><polygon points="198.69 90.21 200.94 86.83 199.74 119.78 198.69 92.44 198.69 90.21" style="fill:#774c2f"/><path d="M114.11,137.4c8.24,1.74,13.89-4.05,13.89-4.05l-8.46,17.75-1.82-10-5.92,6.38.45-9.11-11.84-13.67-5-10.5-4.1,1.4,2.28-5.93-.46-6L91.76,92.35l-7.45-15.1s9.7,6,10.34,14l1.51,18.61" transform="translate(-1 -0.36)" style="fill:#774c2f"/><path d="M221.62,77.25s-.57-.63-2.78,5.87.14,15.51.14,15.51l-2.35,21.51V127l2.49-11.38,2.5-13.47Z" transform="translate(-1 -0.36)" style="fill:#774c2f"/><path d="M230,138s-3.37,17.9-4.75,24.86-14.79,32.57-14.79,32.57L194.83,223.8l-1.1,7.91-7.86,57-8.29,1.86,8.55-25.78.36-11.16,3.65-17.31s4.55-1.36.91-8.2-6.38-1.85-6.38-1.85l7.29-5.89,7.73-13.21,10.49-17.8a115.29,115.29,0,0,0,8.94-19.54L224.3,154Z" transform="translate(-1 -0.36)" style="fill:#774c2f"/><path d="M237.75,110a58,58,0,0,0-9.31,2.51c-1.95.66-6.64,2.89-8.59,1.41l.51,3.93c4.22-3.74,9.81-3.71,15.11-3.88L234.8,109a51.37,51.37,0,0,1-11.26,1.82c-2.57,0-5,0-7.39,1.17-3.2,1.52-5.15,5.51-1.81,8.17s9.88,1,13.71.62,9.44-.86,12-4c2.88-3.54.77-6.33-2.86-7.78-5.76-2.31-10.77-2.29-16.72-1.38-3.74.57-9.94,2.15-11.6,6-2,4.6,2.54,6.49,6.32,6.7,3.21.18,3.2-4.82,0-5-2.47-.14-.61-.32.08-.79a13.55,13.55,0,0,1,3.58-1.37,39,39,0,0,1,8.53-1.51,21.07,21.07,0,0,1,5,1.19c.54.14,3.62,1.7,4.12,1.64,1,.54.91.21-.14-1l-.66.46c-1.07-.07-2.29.82-3.26,1.14a35.29,35.29,0,0,1-8.3,1.17c-1.39.08-2.8,0-4.19,0-.67,0-1.34,0-2,0-.88,1-.95,1.14-.21.6,3.15-1.11,5.77-.73,9-1.16a88.75,88.75,0,0,0,9.43-1.85c2.73-.66,2.17-5-.66-4.91-6.85.22-13.27.58-18.65,5.35-1.33,1.17-.68,3,.51,3.92,2,1.55,6,1,8.3.49,4.54-1,8.85-3.2,13.45-3.91,3.17-.49,1.82-5.31-1.33-4.82Z" transform="translate(-1 -0.36)" style="fill:#774c2f"/><path d="M242.06,129.93c-7.44,0-15.85-1.09-23.13.69-3.77.92-6.27,4.8-2.8,8,4,3.71,11.28,2.5,16.1,2.62,2.68.06,5.86,1.19,8.42-.16,2.22-1.17,2.5-3.57,3.57-5.61,1.5-2.84-2.82-5.37-4.32-2.52-.24.46-1.22,3.39-1.57,3.62-1.08.71-3.39-.24-4.57-.32-4.22-.29-7.78.38-12-.68-1.64-.42-1.71.06-.47-.33,2.47-.77,5.82-.35,8.4-.35,4.11,0,8.23,0,12.34,0,3.22,0,3.22-5,0-5Z" transform="translate(-1 -0.36)" style="fill:#774c2f"/><path d="M229.73,147.19c-3.93-1.55-9.5-2.16-13.39-.21-3.27,1.63-5.12,5.69-2.68,8.83,4.17,5.36,14.92,4.87,21,4.89,3.21,0,3.22-5,0-5-4.71,0-9.69-.11-14.21-1.52-1.75-.55-4.43-1.56-1.51-2.88,2.73-1.23,6.8-.34,9.46.71,3,1.18,4.29-3.66,1.33-4.82Z" transform="translate(-1 -0.36)" style="fill:#774c2f"/><path d="M232,171.83c-3.68.07-7.43.23-11-.93-2.66-.86-4.44-2.52-7.35-1.4-3.72,1.44-8.18,6.48-5.95,10.66s10.69,3.46,14.55,3.5c5.34.07,10.71.71,11.69-5.93.47-3.15-4.34-4.51-4.82-1.33-.53,3.58-7.15,2.38-9.82,2.19-1.5-.11-3-.26-4.52-.38-2.1-.18-3-.18-1.52-2.16,2.17-3,5.62-.37,8.24.23,3.42.78,7,.62,10.49.55,3.21-.06,3.22-5.06,0-5Z" transform="translate(-1 -0.36)" style="fill:#774c2f"/><path d="M241.93,106.35a35.55,35.55,0,0,0-13.48-4.56c-8-1-15.68,2.69-19.84,3s-6.55,4.19-6.55,4.19-1.21,6.33,2.6,8.64,16.62-1.53,16.62-1.53l13.47,6.79C252.24,115.46,241.93,106.35,241.93,106.35Z" transform="translate(-1 -0.36)" style="fill:#91623f;stroke:#774c2f;stroke-miterlimit:10"/><path d="M241.12,127s-23.4-.1-31.43,2.73c-7.75,2.74-4.07,7.76-4.07,7.76s-1.29,1.35,4.07,4.09,15.22.45,15.22.45l16.85,1.61a8.31,8.31,0,0,0,5-4.34,16.71,16.71,0,0,0,1.35-6.83C248.15,126.39,241.12,127,241.12,127Z" transform="translate(-1 -0.36)" style="fill:#91623f;stroke:#774c2f;stroke-miterlimit:10"/><path d="M236.61,146.9S223.21,143,222,143s-9.17.18-13.75,3.86a5.89,5.89,0,0,0-1.38,8.16s1.46,2.19,3.08,2.19,8.68-.16,11.1-.34c0,0,15,5.9,17.29,5.47a6.18,6.18,0,0,0,4.86-3.59c1.34-2.33,1.64-7.66,0-8.9S236.61,146.9,236.61,146.9Z" transform="translate(-1 -0.36)" style="fill:#91623f;stroke:#774c2f;stroke-miterlimit:10"/><path d="M231.31,166.46c-1.79-1.14-16.26-3.22-16.26-3.22s-6.33-2.21-9.43,0-.87,8.25-.87,8.25,1.33,2.46,2.69,2.46H217l13,9.41s5.83-3.31,7.06-4.55,1.83-4.37,1.83-5.51S233.1,167.59,231.31,166.46Z" transform="translate(-1 -0.36)" style="fill:#91623f;stroke:#774c2f;stroke-miterlimit:10"/><path d="M109.86,115c-.34,0-.68-.1-1-.17a10.47,10.47,0,0,1-5.59-3.2,7.58,7.58,0,0,1,3.32.61,7,7,0,0,1,2.61,1.91A3.36,3.36,0,0,1,109.86,115Z" transform="translate(-1 -0.36)" style="fill:#f1f2f2;stroke:#6d6e71;stroke-miterlimit:10;stroke-width:0.25px"/><circle cx="119.14" cy="124.94" r="5.15" style="fill:#f1f2f2;stroke:#6d6e71;stroke-miterlimit:10;stroke-width:0.25px"/><path d="M87,175a7.77,7.77,0,0,1-2.73-.86A7.58,7.58,0,0,1,86.12,173Z" transform="translate(-1 -0.36)" style="fill:#f1f2f2;stroke:#6d6e71;stroke-miterlimit:10;stroke-width:0.25px"/><path d="M184.22,89.47a2.86,2.86,0,0,1-.83.25,5.13,5.13,0,0,1-1.36.19,3.35,3.35,0,0,1-.12-.85,4.52,4.52,0,0,1,.39-2.17,2,2,0,0,1,.19-.39,4.8,4.8,0,0,1,.93,2.73C183.69,89.3,184,89.38,184.22,89.47Z" transform="translate(-1 -0.36)" style="fill:#f1f2f2;stroke:#6d6e71;stroke-miterlimit:10;stroke-width:0.25px"/><circle cx="213.38" cy="189.72" r="4.8" style="fill:#f1f2f2;stroke:#6d6e71;stroke-miterlimit:10;stroke-width:0.25px"/><path d="M184.22,89.47a2.86,2.86,0,0,1-.83.25,4.06,4.06,0,0,1-.36,1.49,2,2,0,0,1-.22.41,4.15,4.15,0,0,1-.78-1.71,3.35,3.35,0,0,1-.12-.85,6.48,6.48,0,0,1,1.51.17C183.69,89.3,184,89.38,184.22,89.47Z" transform="translate(-1 -0.36)" style="fill:#f1f2f2;stroke:#6d6e71;stroke-miterlimit:10;stroke-width:0.25px"/><path d="M109.86,115c-.34,0-.68-.1-1-.17a10.47,10.47,0,0,1-5.59-3.2,7.58,7.58,0,0,1,3.32.61,7,7,0,0,1,2.61,1.91A3.36,3.36,0,0,1,109.86,115Z" transform="translate(-1 -0.36)" style="fill:#f1f2f2;stroke:#6d6e71;stroke-miterlimit:10;stroke-width:0.25px"/><path d="M110.86,121.39a6,6,0,0,1-.31.87,3.33,3.33,0,0,1-.35.64,6.07,6.07,0,0,1-.92-1.29A5.63,5.63,0,0,1,110.86,121.39Z" transform="translate(-1 -0.36)" style="fill:#f1f2f2;stroke:#6d6e71;stroke-miterlimit:10;stroke-width:0.25px"/><path d="M118.62,128.73a7.42,7.42,0,0,1-.61,3.34,4.14,4.14,0,0,1-.34.66,7.08,7.08,0,0,1,.61-3.34A4.14,4.14,0,0,1,118.62,128.73Z" transform="translate(-1 -0.36)" style="fill:#f1f2f2;stroke:#6d6e71;stroke-miterlimit:10;stroke-width:0.25px"/><path d="M118.62,128.73a7.42,7.42,0,0,1-.61,3.34,4.14,4.14,0,0,1-.34.66,7.08,7.08,0,0,1,.61-3.34A4.14,4.14,0,0,1,118.62,128.73Z" transform="translate(-1 -0.36)" style="fill:#f1f2f2;stroke:#6d6e71;stroke-miterlimit:10;stroke-width:0.25px"/><path d="M191.15,90.74a4.64,4.64,0,0,1-2.64,2.54,7.72,7.72,0,0,1,.15,6.45,7.64,7.64,0,0,1-14-6.11,9.56,9.56,0,0,1,.53-1,4.7,4.7,0,0,1-1-5.24,4.48,4.48,0,0,1,.82-1.27A7.64,7.64,0,1,1,189,84.54,4.8,4.8,0,0,1,191.15,90.74Z" transform="translate(-1 -0.36)" style="fill:#f1f2f2;stroke:#6d6e71;stroke-miterlimit:10;stroke-width:0.25px"/><path d="M150.8,96.27a7.63,7.63,0,0,0-10.22,9.61h0a6.81,6.81,0,0,0-6.77,6,6,6,0,0,0-1.33.13,5.56,5.56,0,0,0-10.32-4,1.42,1.42,0,0,0-.48-.27,10.36,10.36,0,0,0,2.25-5.42,10.64,10.64,0,1,0-21.14-2.41,10.5,10.5,0,0,0,2.77,8.39,7.59,7.59,0,0,0-6.76,4.56,7.68,7.68,0,0,0,4,10.08,8.23,8.23,0,0,0,3.2.64,7.59,7.59,0,0,0,4.26,9.14,7,7,0,0,0,1.91.54,6.31,6.31,0,0,0-1,1.61,7.64,7.64,0,0,0,14,6.1,7.38,7.38,0,0,0,.49-4.44,7.64,7.64,0,0,0,8.92-4.37,7.35,7.35,0,0,0,.35-5,7.66,7.66,0,0,0,6.47-7.6,6.85,6.85,0,0,0,6-6.8,6.62,6.62,0,0,0-.26-1.85,7.62,7.62,0,0,0,3.65-14.59Zm-31.52,34.1a4.28,4.28,0,0,0,.64-1,4.59,4.59,0,0,0,.13,1.1A4.36,4.36,0,0,0,119.28,130.37Zm7.44-13.86a7.59,7.59,0,0,0-.36,5.06,7.56,7.56,0,0,0-5.49,3.85,7.07,7.07,0,0,0-1-3.51,7.54,7.54,0,0,0,5.27-4.37,7.19,7.19,0,0,0,.51-1.7,6.74,6.74,0,0,0,1.32.22A5.05,5.05,0,0,0,126.72,116.51Z" transform="translate(-1 -0.36)" style="fill:#f1f2f2;stroke:#6d6e71;stroke-miterlimit:10;stroke-width:0.25px"/><path d="M110,187.62a7.63,7.63,0,0,1-14.64-3.14,7.58,7.58,0,0,1-6.18,3.17,7.64,7.64,0,0,1-4.92-13.47,7.08,7.08,0,0,1-1.81-1.34,7.63,7.63,0,0,1-2.07-7,7.64,7.64,0,1,1,5.79-12.42,7.55,7.55,0,0,1,1.51,6.39,7.63,7.63,0,0,1,5.58,13,4.23,4.23,0,0,1-.49.44,7.7,7.7,0,0,1,4,6.73v.13A7.62,7.62,0,0,1,110,187.62Z" transform="translate(-1 -0.36)" style="fill:#f1f2f2;stroke:#6d6e71;stroke-miterlimit:10;stroke-width:0.25px"/><path d="M231.26,120.09a2.23,2.23,0,0,1,0,.37s-.05,0-.08,0a2.63,2.63,0,0,1-.41-.21A4.77,4.77,0,0,1,231.26,120.09Z" transform="translate(-1 -0.36)" style="fill:#f1f2f2;stroke:#6d6e71;stroke-miterlimit:10;stroke-width:0.25px"/><path d="M236.43,126.73l-.07.15A4.76,4.76,0,0,1,234.6,121l.08-.14A4.75,4.75,0,0,1,236.43,126.73Z" transform="translate(-1 -0.36)" style="fill:#f1f2f2;stroke:#6d6e71;stroke-miterlimit:10;stroke-width:0.25px"/><path d="M231.26,120.09a2.23,2.23,0,0,1,0,.37s-.05,0-.08,0a2.63,2.63,0,0,1-.41-.21,4.75,4.75,0,0,1-2.46-4.49l.07,0A4.82,4.82,0,0,1,231.26,120.09Z" transform="translate(-1 -0.36)" style="fill:#f1f2f2;stroke:#6d6e71;stroke-miterlimit:10;stroke-width:0.25px"/><path d="M240.66,118.48a4.77,4.77,0,0,0-3.65-.07,3.33,3.33,0,0,0,.24-.46,4.8,4.8,0,1,0-8.81-3.83,4.93,4.93,0,0,0-.39,1.61,4.79,4.79,0,0,0-6.25,2.51,1.21,1.21,0,0,0-.31-.09,5,5,0,0,0,1.24-1.69,4.8,4.8,0,1,0-6.31,2.49,5,5,0,0,0,1,.33,1.89,1.89,0,0,0-.34.35,5.76,5.76,0,0,0-1.05-.64,4.83,4.83,0,0,0-6.32,2.5,4.79,4.79,0,0,0,7.93,5.14,4.28,4.28,0,0,0,1,.64,4.81,4.81,0,0,0,6.33-2.46,4.86,4.86,0,0,0,2,.07,4.81,4.81,0,0,0,2.88,4.34,4.76,4.76,0,0,0,6.24-2.35,8.13,8.13,0,0,0,.71.4,4.79,4.79,0,1,0,3.83-8.79Zm-6.22,2.35a1.65,1.65,0,0,0-.31-.2,1.7,1.7,0,0,0,.53-.2A3.78,3.78,0,0,0,234.44,120.83Z" transform="translate(-1 -0.36)" style="fill:#f1f2f2;stroke:#6d6e71;stroke-miterlimit:10;stroke-width:0.25px"/><circle cx="61.03" cy="117.44" r="4.8" style="fill:#f1f2f2;stroke:#6d6e71;stroke-miterlimit:10;stroke-width:0.25px"/><path d="M218.53,190.38a3.45,3.45,0,0,1-1,3.06,4.47,4.47,0,0,1-6.28,0,3.45,3.45,0,0,1-1-3.06,4.25,4.25,0,0,0,8.3,0Z" transform="translate(-1 -0.36)" style="fill:#9fe4f4"/><path d="M110.42,183a7.85,7.85,0,0,1-1.42,6.14,7.24,7.24,0,0,1-11.84,0A7.85,7.85,0,0,1,95.74,183a10.22,10.22,0,0,0,2.61,5.13,6.42,6.42,0,0,0,9.46,0A10.14,10.14,0,0,0,110.42,183Z" transform="translate(-1 -0.36)" style="fill:#9fe4f4"/><path d="M96.82,178.9a7.42,7.42,0,0,1-1.61,6.1,7.75,7.75,0,0,1-12,0,7.42,7.42,0,0,1-1.61-6.1,9.28,9.28,0,0,0,2.75,5,7.13,7.13,0,0,0,9.76,0A9.28,9.28,0,0,0,96.82,178.9Z" transform="translate(-1 -0.36)" style="fill:#9fe4f4"/><path d="M86.82,159.77a7.39,7.39,0,0,1,6.13,1.5,7.74,7.74,0,0,1,.21,12A7.35,7.35,0,0,1,87.09,175a9.27,9.27,0,0,0,5-2.83,7.12,7.12,0,0,0-.17-9.76A9.23,9.23,0,0,0,86.82,159.77Z" transform="translate(-1 -0.36)" style="fill:#9fe4f4"/><path d="M117.65,130.73a5.88,5.88,0,0,1,5.36,1.56,7.62,7.62,0,0,1,.19,10.88,5.86,5.86,0,0,1-5.3,1.74,7.18,7.18,0,0,0,4.12-2.76,7.42,7.42,0,0,0-.15-8.8A7.07,7.07,0,0,0,117.65,130.73Z" transform="translate(-1 -0.36)" style="fill:#9fe4f4"/><path d="M117.65,107.37a5.88,5.88,0,0,1,5.36,1.56,7.62,7.62,0,0,1,.19,10.88,5.84,5.84,0,0,1-5.3,1.74,7.09,7.09,0,0,0,4.12-2.76,7.42,7.42,0,0,0-.15-8.8A7.17,7.17,0,0,0,117.65,107.37Z" transform="translate(-1 -0.36)" style="fill:#9fe4f4"/><path d="M137.86,117.63a5.39,5.39,0,0,1-3.43-3.58,6.35,6.35,0,0,1,5.09-8.15,5.41,5.41,0,0,1,4.73,1.51,6.93,6.93,0,0,0-4.37,0,5.89,5.89,0,0,0-3.93,6.29A7,7,0,0,0,137.86,117.63Z" transform="translate(-1 -0.36)" style="fill:#9fe4f4"/><path d="M125.71,114.46a3.89,3.89,0,0,1-2.72-2.75,5.15,5.15,0,0,1,4-6.47,3.88,3.88,0,0,1,3.67,1.23,4.94,4.94,0,0,0-5,8Z" transform="translate(-1 -0.36)" style="fill:#9fe4f4"/><path d="M109.54,91.86a7.87,7.87,0,0,1,7.21-1.28,10.27,10.27,0,0,1,6,4.77,11.3,11.3,0,0,1,1.28,3.7,9.81,9.81,0,0,1-.2,3.89,7.84,7.84,0,0,1-4.76,5.55,9.07,9.07,0,0,0,3.23-5.86A10.26,10.26,0,0,0,116.24,92,9.09,9.09,0,0,0,109.54,91.86Z" transform="translate(-1 -0.36)" style="fill:#9fe4f4"/><path d="M177.61,76.06A5.87,5.87,0,0,1,183,74.83a7.51,7.51,0,0,1,5.36,9.36,5.88,5.88,0,0,1-3.8,4,7.17,7.17,0,0,0-6.95-12.15Z" transform="translate(-1 -0.36)" style="fill:#9fe4f4"/><path d="M183.79,90.34a5.85,5.85,0,0,1,4.47,3.26,7.51,7.51,0,0,1-3.55,10.18,5.82,5.82,0,0,1-5.52-.23,7.11,7.11,0,0,0,4.78-1.14,7.31,7.31,0,0,0,2.86-8.2A7.12,7.12,0,0,0,183.79,90.34Z" transform="translate(-1 -0.36)" style="fill:#9fe4f4"/><path d="M239.48,119.43a3.3,3.3,0,0,1,2.83,1.44,3.83,3.83,0,0,1-2.05,5.89,3.27,3.27,0,0,1-3.11-.63,3.66,3.66,0,0,0,2.33-6.7Z" transform="translate(-1 -0.36)" style="fill:#9fe4f4"/><path d="M231.93,121.45a3.27,3.27,0,0,1,2.82,1.44,3.83,3.83,0,0,1-2.05,5.89,3.29,3.29,0,0,1-3.11-.64,3.66,3.66,0,0,0,2.34-6.69Z" transform="translate(-1 -0.36)" style="fill:#9fe4f4"/><path d="M226.34,116a3.26,3.26,0,0,1,2.86,1.64,4.25,4.25,0,0,1-2.14,6.14,3.25,3.25,0,0,1-3.26-.49,4.08,4.08,0,0,0,2.54-7.29Z" transform="translate(-1 -0.36)" style="fill:#9fe4f4"/><path d="M220.89,119.15a3.22,3.22,0,0,1,2.85,1.63,4.26,4.26,0,0,1-2.13,6.15,3.25,3.25,0,0,1-3.26-.5,4.08,4.08,0,0,0,2.54-7.28Z" transform="translate(-1 -0.36)" style="fill:#9fe4f4"/><path d="M233.29,111.83a3.23,3.23,0,0,1,2.85,1.64,4.25,4.25,0,0,1-2.13,6.14,3.25,3.25,0,0,1-3.26-.49,4.08,4.08,0,0,0,2.54-7.29Z" transform="translate(-1 -0.36)" style="fill:#9fe4f4"/><path d="M215,119.72a3.26,3.26,0,0,1,2.86,1.64,4.25,4.25,0,0,1-2.14,6.14,3.23,3.23,0,0,1-3.26-.5,4.08,4.08,0,0,0,2.54-7.28Z" transform="translate(-1 -0.36)" style="fill:#9fe4f4"/><path d="M218.74,111.17a3.3,3.3,0,0,1,2.83,1.44,3.83,3.83,0,0,1-2,5.89,3.26,3.26,0,0,1-3.11-.63,3.66,3.66,0,0,0,2.33-6.7Z" transform="translate(-1 -0.36)" style="fill:#9fe4f4"/><path d="M177.9,93A2.91,2.91,0,0,1,175.06,92a4,4,0,0,1-.81-3.22A4,4,0,0,1,176.14,86a2.89,2.89,0,0,1,3.05,0,4,4,0,0,0-2.1,1.27,3.9,3.9,0,0,0-.7,3.86A4,4,0,0,0,177.9,93Z" transform="translate(-1 -0.36)" style="fill:#9fe4f4"/><path d="M78.71,150.73a7.39,7.39,0,0,1,6.13,1.5,7.75,7.75,0,0,1,.22,12A7.41,7.41,0,0,1,79,166a9.4,9.4,0,0,0,5-2.83,7.13,7.13,0,0,0-.17-9.77A9.28,9.28,0,0,0,78.71,150.73Z" transform="translate(-1 -0.36)" style="fill:#9fe4f4"/><path d="M61,113.93a3.06,3.06,0,0,1,3.18.67,4.47,4.47,0,0,1,.12,6.46,3.08,3.08,0,0,1-3.16.78,4,4,0,0,0,1.94-1.78,4.61,4.61,0,0,0,.54-2.22,4.56,4.56,0,0,0-.61-2.2A4,4,0,0,0,61,113.93Z" transform="translate(-1 -0.36)" style="fill:#9fe4f4"/><circle cx="149.82" cy="149.82" r="144.82" style="fill:none;stroke:#58595b;stroke-miterlimit:10;stroke-width:10px"/></svg>