<svg id="Calque_1" data-name="Calque 1" xmlns="http://www.w3.org/2000/svg" xmlns:xlink="http://www.w3.org/1999/xlink" viewBox="0 0 290.27 247.68"><defs><linearGradient id="Dégradé_sans_nom_395" x1="258.09" y1="153.71" x2="356.6" y2="153.71" gradientUnits="userSpaceOnUse"><stop offset="0" stop-color="#00a156"/><stop offset="0.22" stop-color="#009c54" stop-opacity="0.99"/><stop offset="0.49" stop-color="#008f4e" stop-opacity="0.97"/><stop offset="0.81" stop-color="#007844" stop-opacity="0.93"/><stop offset="1" stop-color="#00673d" stop-opacity="0.9"/></linearGradient><radialGradient id="Dégradé_sans_nom_432" cx="193.4" cy="151.37" fx="222.72743992417773" fy="51.51011857653667" r="104.08" gradientTransform="translate(0.94)" gradientUnits="userSpaceOnUse"><stop offset="0" stop-color="#0babdd"/><stop offset="0.34" stop-color="#0d9dd3"/><stop offset="0.98" stop-color="#1177b8"/><stop offset="1" stop-color="#1176b7"/></radialGradient><radialGradient id="Dégradé_sans_nom_108" cx="191.67" cy="145.59" r="104.93" gradientUnits="userSpaceOnUse"><stop offset="0" stop-color="#f3152b"/><stop offset="0.3" stop-color="#ef152b"/><stop offset="0.58" stop-color="#e4172d"/><stop offset="0.85" stop-color="#d1192f"/><stop offset="1" stop-color="#c31b30"/></radialGradient><radialGradient id="Dégradé_sans_nom_102" cx="190.36" cy="151.35" r="100.63" gradientUnits="userSpaceOnUse"><stop offset="0.32" stop-color="#fff"/><stop offset="0.69" stop-color="#fcfcfc"/><stop offset="0.97" stop-color="#f3f4f4"/><stop offset="1" stop-color="#f1f2f2"/></radialGradient><radialGradient id="Dégradé_sans_nom_359" cx="193.15" cy="138.53" fx="180.39998615968221" fy="253.10088951248576" r="115.27" gradientUnits="userSpaceOnUse"><stop offset="0" stop-color="#fff148"/><stop offset="0.24" stop-color="#ffed49"/><stop offset="0.49" stop-color="#ffe04b"/><stop offset="0.75" stop-color="#feca4f"/><stop offset="1" stop-color="#feaf54"/></radialGradient></defs><title>covidIconApp</title><path d="M296.54,99a106.81,106.81,0,0,1-.07,109.49" transform="translate(-68.18 -28.28)" style="fill:none;stroke-miterlimit:10;stroke-width:90px;stroke:url(#Dégradé_sans_nom_395)"/><path d="M294.2,223H91.2s28.1,36.89,67.33,48.49c17.21,5.1,38.33,6.79,66.09,0C247.06,266.55,275.92,249.41,294.2,223Z" transform="translate(-68.18 -28.28)" style="fill:url(#Dégradé_sans_nom_432)"/><path d="M248.68,189.85c-10.24,16.84-28.42,30.89-56.53,30.89-30.67,0-52.93-22-61.79-43.65-5-15.69-5.45-24.71-5.45-24.71l-56.73-.65s-.05,21.71,5.64,40A94.17,94.17,0,0,0,91.2,223h203Z" transform="translate(-68.18 -28.28)" style="fill:url(#Dégradé_sans_nom_108)"/><path d="M247.15,116.1C233.42,95.33,220.47,84.22,191,84.22c-30.88,0-53.51,21-62.77,42.55-5.31,15.61-4.28,25.61-4.28,25.61l-54.83-.63s0-20.77,5.81-39a144.51,144.51,0,0,1,14-30.66H293.59Z" transform="translate(-68.18 -28.28)" style="stroke:#f1f2f2;stroke-miterlimit:10;stroke-width:0.5px;fill:url(#Dégradé_sans_nom_102)"/><path d="M88.87,82.11H293.61S269.35,46.56,225.56,34c-17.39-5-34.95-9.3-66.64-1.16C139.46,39.19,109.89,52.55,88.87,82.11Z" transform="translate(-68.18 -28.28)" style="fill:url(#Dégradé_sans_nom_359)"/><text transform="translate(206.13 141.19)" style="font-size:49px;fill:#fff;font-family:Avenir-Black, Avenir;font-weight:800">-19</text></svg>