<svg id="Vectorportal.com" xmlns="http://www.w3.org/2000/svg" viewBox="0 0 579.47 579.47"><title>virus-icons-vectorportal [Converti]</title><path d="M482.21,219.06a19,19,0,0,0-32.1,10.71,23.92,23.92,0,0,1-11,16.39l-33.62,20.26c-3.24,2.07-7.73,4.68-9.62,4.95l-.72-.36a72.79,72.79,0,0,0-21.31-21.88l2.34-3.69a16.81,16.81,0,0,1,11.6-7.66,13.3,13.3,0,0,0,9.35-6,13.54,13.54,0,0,0-7-20.08,13.45,13.45,0,0,0-17.26,16.57A17,17,0,0,1,370.81,242l-2.42,3.87a68.74,68.74,0,0,0-26.89-8l-2.06-1.26a24.9,24.9,0,0,1-1.08-6.3V220.22A16.6,16.6,0,0,1,344,207.53a13.67,13.67,0,0,0,4.59-10.17,13.44,13.44,0,0,0-26.53-3.15,13.08,13.08,0,0,0,4.23,13.23A17,17,0,0,1,332,220.22V229c0,2.7-.1,6.4-.73,7.57l-2,1.25a70.17,70.17,0,0,0-40.1,16.84,22.27,22.27,0,0,1-4.58-4l-6.29-7.83a16.68,16.68,0,0,1-3.51-13.51,13.51,13.51,0,1,0-25.54,3.42,13.51,13.51,0,0,0,11.7,7.74,16.86,16.86,0,0,1,12.41,6.31l5.48,6.84c1.7,2.07,4,4.95,4.22,6.31l-.35,1a70.55,70.55,0,0,0-15.11,26.83c-.9-.08-1.71-.17-2.16-.26l-7.82-1.62a13.57,13.57,0,0,1-9-6.48,10.73,10.73,0,1,0-2.88,13.77,13.19,13.19,0,0,1,10.79-2.34l6.83,1.44c.9.18,1.89.36,2.88.63a72.67,72.67,0,0,0-1.71,15.4,64.29,64.29,0,0,0,.36,7.2,35.54,35.54,0,0,1-7.28,2l-40.91,4.41a23.7,23.7,0,0,1-18.79-5.76,18.81,18.81,0,0,0-15.1-4.77,19.13,19.13,0,0,0-15.47,25.75A18.94,18.94,0,0,0,183,349.34a19.34,19.34,0,0,0,18-8.28,23.59,23.59,0,0,1,16.81-10.26l39-4.15c3.32-.45,7.73-.89,10-.54a69.66,69.66,0,0,0,9.53,21.25,33.54,33.54,0,0,1-3.68,3.6l-8.1,6.13A17,17,0,0,1,251,360.15a13.24,13.24,0,0,0-10.88,2.34,13.5,13.5,0,1,0,21.5,11.89,16.87,16.87,0,0,1,6.74-12.25l7-5.23a50.83,50.83,0,0,1,5.39-3.59A71.23,71.23,0,0,0,302.66,371a21.89,21.89,0,0,1-1.34,2.79L297,380.59a13.45,13.45,0,0,1-9.26,6.12,10.74,10.74,0,1,0,9,18.37,10.64,10.64,0,0,0,2.87-10.81,13.63,13.63,0,0,1,1.62-11l3.78-5.86a44.15,44.15,0,0,1,2.79-4,69.59,69.59,0,0,0,27.42,5.59c.09,0,.18-.09.36-.09a35.54,35.54,0,0,1,1.71,6.3l5.13,40.87a23.89,23.89,0,0,1-5.4,19,18.77,18.77,0,0,0-4.49,15.12,19.05,19.05,0,0,0,37.85-.81,18.92,18.92,0,0,0-8.55-17.82,24.13,24.13,0,0,1-10.52-16.75l-4.85-39a55,55,0,0,1-.72-7.65A70.6,70.6,0,0,0,370,369.79a12.58,12.58,0,0,1,1.35,2.06l4.76,8.92a17,17,0,0,1,.91,13.86,13.46,13.46,0,1,0,15.64-8.28,16.5,16.5,0,0,1-11-8.55l-4.13-7.74c-.54-1.18-1.26-2.62-1.89-3.88a71.94,71.94,0,0,0,18.87-19.54l22.22,13.15a23.92,23.92,0,0,1,11.6,15.94,19.05,19.05,0,1,0,12.49-21.79,24,24,0,0,1-19.69-1.89L399,338.72A69.33,69.33,0,0,0,405.52,314l7.91-.09a13.46,13.46,0,0,1,10.16,4.41A10.72,10.72,0,1,0,434,300.73a10.61,10.61,0,0,0-10.52,3.5,13.43,13.43,0,0,1-10.07,4.59l-7,.1h-.63v-.63a70.32,70.32,0,0,0-4.13-23.87l.35.55-.09-3.79c1.08-1.62,5.13-5,6.74-6.12l35.25-21.25A23.51,23.51,0,0,1,463.32,251a19.06,19.06,0,0,0,18.89-32Z" transform="translate(-38.33 -38.51)" style="fill:#221f20;fill-rule:evenodd"/><circle cx="289.74" cy="289.74" r="264.74" style="fill:none;stroke:#221f20;stroke-miterlimit:10;stroke-width:50px"/></svg>